<?xml version="1.0" encoding="utf-8"?>
<!-- Generator: Adobe Illustrator 13.0.2, SVG Export Plug-In . SVG Version: 6.00 Build 14948)  -->
<!DOCTYPE svg PUBLIC "-//W3C//DTD SVG 1.1//EN" "http://www.w3.org/Graphics/SVG/1.1/DTD/svg11.dtd">
<svg version="1.1" xmlns="http://www.w3.org/2000/svg" xmlns:xlink="http://www.w3.org/1999/xlink" x="0px" y="0px" width="329.9px"
	 height="113.142px" viewBox="0 0 329.9 113.142" enable-background="new 0 0 329.9 113.142" xml:space="preserve">
<g id="Hintergrund">
</g>
<g id="Hilfslinien_anzeigen">
</g>
<g id="Vordergrund">
</g>
<g id="Kralle">
	<g>
		<g>
			<g>
				<g>
					<path fill-rule="evenodd" clip-rule="evenodd" fill="#002C68" d="M127.797,93.78c0-2.967-1.327-5.387-3.708-6.792
						c-1.484-0.898-2.928-1.289-6.871-1.289h-7.183v27.014h4.45v-10.306h4.567C123.933,102.406,127.797,99.089,127.797,93.78z
						 M122.839,94.053c0,3.201-1.522,4.762-4.841,4.762h-3.513V89.33h3.513c1.757,0,2.928,0.468,3.748,1.327
						C122.488,91.438,122.839,92.569,122.839,94.053z"/>
					<path fill-rule="evenodd" clip-rule="evenodd" fill="#002C68" d="M151.696,112.712l-8.627-27.052h-5.192l-8.862,27.052h4.646
						l2.186-7.105h8.744l2.186,7.105H151.696z M143.576,101.86h-6.636c0.625-1.796,3.396-11.711,3.396-11.711h0.039
						C140.571,91.203,143.303,101.274,143.576,101.86z"/>
					<path fill-rule="evenodd" clip-rule="evenodd" fill="#002C68" d="M175.983,99.284c0-4.216-0.937-7.457-2.927-9.759
						c-2.538-2.889-5.543-3.826-10.618-3.826h-5.622v27.014h6.676c5.036,0,7.377-0.897,9.642-3.787
						C174.969,106.584,175.983,103.383,175.983,99.284z M170.987,99.752c0,6.129-1.913,9.292-6.675,9.292h-2.967V89.251h2.85
						c2.42,0,3.826,0.624,5.075,2.342C170.674,93.506,170.987,96.278,170.987,99.752z"/>
					<polygon fill-rule="evenodd" clip-rule="evenodd" fill="#002C68" points="198.525,112.712 198.525,108.887 187.712,108.887 
						187.712,100.455 195.949,100.455 195.949,96.747 187.634,96.747 187.634,89.368 197.549,89.368 198.135,85.699 183.145,85.699 
						183.145,112.712 					"/>
					<path fill-rule="evenodd" clip-rule="evenodd" fill="#002C68" d="M223.171,112.712l-3.981-6.48
						c-1.406-2.264-3.201-4.88-4.177-5.387c4.216,0,6.715-3.552,6.715-7.417c0-4.216-2.733-7.729-8.784-7.729h-8.236v27.014h4.411
						v-11.672c0.859,0.039,1.25,0.312,1.757,0.82c1.483,1.483,2.732,3.357,4.606,6.675l2.342,4.177H223.171z M217.042,93.467
						c0,1.405-0.468,2.538-1.21,3.279c-0.82,0.819-2.069,1.132-4.412,1.132h-2.303V89.33h2.459
						C215.559,89.33,217.042,90.734,217.042,93.467z"/>
					<path fill-rule="evenodd" clip-rule="evenodd" fill="#002C68" d="M247.541,105.061c0-2.693-1.249-5.738-5.738-6.832
						c3.005-0.859,4.645-3.005,4.645-5.895c0-2.264-1.015-4.021-3.044-5.309c-1.679-1.054-3.084-1.327-7.105-1.327h-7.144v27.014
						h7.847C243.832,112.712,247.541,110.409,247.541,105.061z M242.583,104.632c0,2.42-1.483,4.372-4.918,4.372h-4.06v-8.549h3.943
						c1.288,0,1.834,0.039,2.498,0.234C241.529,101.119,242.583,102.719,242.583,104.632z M241.724,93.038
						c0,0.703-0.234,1.834-1.054,2.693c-0.859,0.898-1.679,1.015-3.318,1.015h-3.826v-7.378h3.475c1.288,0,1.991,0.117,2.537,0.312
						C240.826,90.149,241.724,91.476,241.724,93.038z"/>
					<path fill-rule="evenodd" clip-rule="evenodd" fill="#002C68" d="M276.093,99.245c0-7.885-3.669-13.936-11.282-13.936
						c-6.753,0-11.282,4.997-11.282,13.897c0,8.002,3.787,13.936,11.477,13.936C272.033,113.142,276.093,107.677,276.093,99.245z
						 M270.979,99.518c0,7.261-2.069,10.228-6.089,10.228c-4.606,0-6.363-3.865-6.363-10.813c0-6.48,1.718-10.15,6.246-10.15
						C269.613,88.783,270.979,92.92,270.979,99.518z"/>
					<path fill-rule="evenodd" clip-rule="evenodd" fill="#002C68" d="M301.711,112.712l-3.981-6.48
						c-1.406-2.264-3.201-4.88-4.177-5.387c4.216,0,6.715-3.552,6.715-7.417c0-4.216-2.733-7.729-8.784-7.729h-8.237v27.014h4.411
						v-11.672c0.859,0.039,1.25,0.312,1.757,0.82c1.483,1.483,2.732,3.357,4.606,6.675l2.342,4.177H301.711z M295.583,93.467
						c0,1.405-0.468,2.538-1.21,3.279c-0.82,0.819-2.069,1.132-4.412,1.132h-2.303V89.33h2.459
						C294.1,89.33,295.583,90.734,295.583,93.467z"/>
					<path fill-rule="evenodd" clip-rule="evenodd" fill="#002C68" d="M326.003,112.712V85.699h-4.255l0.078,12.335
						c0,2.459,0.273,6.324,0.39,7.69l-0.117,0.118c-0.352-1.249-1.522-4.45-2.771-6.949l-6.558-13.194h-5.075v27.014h4.411
						l-0.156-13.078c-0.039-2.381-0.078-5.23-0.273-7.495l0.117-0.117c0.508,1.601,1.991,4.997,3.435,8.002l6.051,12.687H326.003z"
						/>
				</g>
				<g>
					<path fill-rule="evenodd" clip-rule="evenodd" fill="#002C68" d="M128.539,66.103V46.662h-4.49v18.152
						c0,3.592-1.601,5.504-4.879,5.504c-3.318,0-4.802-1.366-4.802-5.504V46.662h-4.528v19.48c0,4.333,2.226,8.002,9.33,8.002
						C125.104,74.144,128.539,71.06,128.539,66.103z"/>
					<path fill-rule="evenodd" clip-rule="evenodd" fill="#002C68" d="M153.779,73.675V46.662h-4.255l0.078,12.336
						c0,2.459,0.273,6.324,0.39,7.69l-0.117,0.117c-0.352-1.249-1.523-4.45-2.772-6.949l-6.558-13.195h-5.075v27.014h4.411
						l-0.156-13.078c-0.039-2.381-0.078-5.23-0.272-7.495l0.117-0.117c0.507,1.601,1.991,4.997,3.435,8.003l6.051,12.687H153.779z"
						/>
					<rect x="160.907" y="46.662" fill-rule="evenodd" clip-rule="evenodd" fill="#002C68" width="4.606" height="27.014"/>
					<path fill-rule="evenodd" clip-rule="evenodd" fill="#002C68" d="M191.691,46.662h-4.685l-4.958,15.068
						c-1.327,4.021-1.639,5.661-1.639,5.661h-0.079c0,0-0.312-1.991-1.405-5.426l-4.879-15.303h-4.918l9.096,27.131h4.177
						L191.691,46.662z"/>
					<polygon fill-rule="evenodd" clip-rule="evenodd" fill="#002C68" points="210.693,73.675 210.693,69.85 199.88,69.85 
						199.88,61.418 208.117,61.418 208.117,57.709 199.802,57.709 199.802,50.331 209.717,50.331 210.303,46.662 195.312,46.662 
						195.312,73.675 					"/>
					<path fill-rule="evenodd" clip-rule="evenodd" fill="#002C68" d="M234.141,73.675l-3.981-6.48
						c-1.406-2.264-3.201-4.879-4.177-5.387c4.216,0,6.715-3.552,6.715-7.417c0-4.216-2.733-7.729-8.784-7.729h-8.237v27.014h4.411
						V62.003c0.859,0.039,1.25,0.312,1.757,0.82c1.483,1.483,2.732,3.357,4.606,6.675l2.342,4.177H234.141z M228.012,54.431
						c0,1.405-0.468,2.537-1.21,3.279c-0.82,0.82-2.069,1.132-4.411,1.132h-2.303v-8.549h2.459
						C226.529,50.292,228.012,51.698,228.012,54.431z"/>
					<path fill-rule="evenodd" clip-rule="evenodd" fill="#002C68" d="M256.962,65.517c0-4.06-2.733-6.558-6.637-7.69l-3.201-0.937
						c-2.654-0.781-3.591-1.64-3.591-3.318c0-2.225,1.756-3.669,4.411-3.669c2.147,0,3.865,0.585,6.363,2.069l2.03-3.162
						c-2.381-1.678-5.465-2.577-8.549-2.577c-5.427,0-9.174,3.24-9.174,8.002c0,1.562,0.39,2.85,1.132,3.943
						c1.015,1.522,2.771,2.538,5.231,3.24l2.889,0.82c2.771,0.781,4.021,2.03,4.021,4.021c0,2.694-1.991,4.294-5.309,4.294
						c-2.733,0-4.88-0.819-7.3-2.225l-1.718,3.435c2.655,1.601,5.777,2.42,8.861,2.42C253.331,74.183,256.962,70.006,256.962,65.517
						z"/>
					<rect x="262.722" y="46.662" fill-rule="evenodd" clip-rule="evenodd" fill="#002C68" width="4.606" height="27.014"/>
					<polygon fill-rule="evenodd" clip-rule="evenodd" fill="#002C68" points="290.618,46.662 271.919,46.662 271.919,50.41 
						278.751,50.41 278.751,73.675 283.24,73.675 283.24,50.41 290.033,50.41 					"/>
					<path fill-rule="evenodd" clip-rule="evenodd" fill="#002C68" d="M311.767,73.675l-8.627-27.052h-5.192l-8.861,27.052h4.646
						l2.186-7.105h8.744l2.186,7.105H311.767z M303.647,62.823h-6.636c0.625-1.796,3.396-11.711,3.396-11.711h0.04
						C300.642,52.167,303.374,62.238,303.647,62.823z M307.278,42.836c0-1.522-1.21-2.733-2.616-2.733
						c-1.484,0-2.655,1.21-2.655,2.733c0,1.483,1.171,2.732,2.615,2.732C306.068,45.569,307.278,44.32,307.278,42.836z
						 M299.08,42.836c0-1.522-1.171-2.733-2.616-2.733c-1.444,0-2.615,1.21-2.615,2.733c0,1.483,1.171,2.732,2.615,2.732
						C297.909,45.569,299.08,44.32,299.08,42.836z"/>
					<polygon fill-rule="evenodd" clip-rule="evenodd" fill="#002C68" points="329.9,46.662 311.201,46.662 311.201,50.41 
						318.033,50.41 318.033,73.675 322.521,73.675 322.521,50.41 329.314,50.41 					"/>
				</g>
			</g>
		</g>
		<g>
			<polygon fill-rule="evenodd" clip-rule="evenodd" fill="#002C68" points="63.494,0 46.501,13.318 46.501,75.124 83.565,109.517 
				63.494,63.166 			"/>
			<polygon fill-rule="evenodd" clip-rule="evenodd" fill="#002C68" points="85.752,46.519 70.051,33.904 70.051,58.477 
				85.752,108.777 			"/>
			<polygon fill-rule="evenodd" clip-rule="evenodd" fill="#002C68" points="39.944,33.248 23.551,46.519 23.551,93.693 
				82.072,111.033 39.944,80.422 			"/>
			<polygon fill-rule="evenodd" clip-rule="evenodd" fill="#002C68" points="81.646,112.967 0,112.967 0,79.766 17.04,66.448 
				17.04,99.696 			"/>
		</g>
	</g>
</g>
</svg>
